<mxfile host="65bd71144e">
    <diagram id="dC1w4XKXdsQ0bnsXxmPA" name="ページ1">
        <mxGraphModel dx="2061" dy="573" grid="1" gridSize="10" guides="1" tooltips="1" connect="1" arrows="1" fold="1" page="1" pageScale="1" pageWidth="1169" pageHeight="827" math="0" shadow="0">
            <root>
                <mxCell id="0"/>
                <mxCell id="1" style="" parent="0"/>
                <mxCell id="20" value="AWS Cloud" style="sketch=0;outlineConnect=0;gradientColor=none;html=1;whiteSpace=wrap;fontSize=12;fontStyle=0;shape=mxgraph.aws4.group;grIcon=mxgraph.aws4.group_aws_cloud;strokeColor=#AAB7B8;fillColor=none;verticalAlign=top;align=left;spacingLeft=30;fontColor=#AAB7B8;dashed=0;fontFamily=Helvetica;" parent="1" vertex="1">
                    <mxGeometry x="40" y="320" width="760" height="760" as="geometry"/>
                </mxCell>
                <mxCell id="12" value="" style="group" parent="1" vertex="1" connectable="0">
                    <mxGeometry x="80" y="440" width="720" height="780" as="geometry"/>
                </mxCell>
                <mxCell id="4" value="VPC" style="sketch=0;outlineConnect=0;gradientColor=none;html=1;whiteSpace=wrap;fontSize=12;fontStyle=0;shape=mxgraph.aws4.group;grIcon=mxgraph.aws4.group_vpc;strokeColor=#879196;fillColor=none;verticalAlign=top;align=left;spacingLeft=30;fontColor=#879196;dashed=0;" parent="12" vertex="1">
                    <mxGeometry width="680" height="600" as="geometry"/>
                </mxCell>
                <mxCell id="27" style="edgeStyle=none;html=1;fontFamily=Helvetica;fontSize=12;fontColor=#879196;" parent="12" source="19" edge="1">
                    <mxGeometry relative="1" as="geometry">
                        <mxPoint x="440" y="115.8775348869183" as="targetPoint"/>
                    </mxGeometry>
                </mxCell>
                <mxCell id="43" value="Public subnet" style="points=[[0,0],[0.25,0],[0.5,0],[0.75,0],[1,0],[1,0.25],[1,0.5],[1,0.75],[1,1],[0.75,1],[0.5,1],[0.25,1],[0,1],[0,0.75],[0,0.5],[0,0.25]];outlineConnect=0;gradientColor=none;html=1;whiteSpace=wrap;fontSize=12;fontStyle=0;container=1;pointerEvents=0;collapsible=0;recursiveResize=0;shape=mxgraph.aws4.group;grIcon=mxgraph.aws4.group_security_group;grStroke=0;strokeColor=#248814;fillColor=#E9F3E6;verticalAlign=top;align=left;spacingLeft=30;fontColor=#248814;dashed=0;sketch=0;fontFamily=Helvetica;" parent="12" vertex="1">
                    <mxGeometry x="80" y="80" width="520" height="160" as="geometry"/>
                </mxCell>
                <mxCell id="44" value="アプリケーション&lt;br&gt;ロードバランサー" style="text;html=1;align=center;verticalAlign=middle;resizable=0;points=[];autosize=1;strokeColor=none;fillColor=none;fontSize=12;fontFamily=Helvetica;fontColor=#879196;" parent="12" vertex="1">
                    <mxGeometry x="368" y="128.61538461538458" width="110" height="30" as="geometry"/>
                </mxCell>
                <mxCell id="46" value="Private subnet" style="points=[[0,0],[0.25,0],[0.5,0],[0.75,0],[1,0],[1,0.25],[1,0.5],[1,0.75],[1,1],[0.75,1],[0.5,1],[0.25,1],[0,1],[0,0.75],[0,0.5],[0,0.25]];outlineConnect=0;gradientColor=none;html=1;whiteSpace=wrap;fontSize=12;fontStyle=0;container=1;pointerEvents=0;collapsible=0;recursiveResize=0;shape=mxgraph.aws4.group;grIcon=mxgraph.aws4.group_security_group;grStroke=0;strokeColor=#147EBA;fillColor=#E6F2F8;verticalAlign=top;align=left;spacingLeft=30;fontColor=#147EBA;dashed=0;sketch=0;fontFamily=Helvetica;" parent="12" vertex="1">
                    <mxGeometry x="80" y="272.82" width="520" height="247.18" as="geometry"/>
                </mxCell>
                <mxCell id="51" value="" style="outlineConnect=0;dashed=0;verticalLabelPosition=bottom;verticalAlign=top;align=center;html=1;shape=mxgraph.aws3.ec2;fillColor=#F58534;gradientColor=none;" parent="12" vertex="1">
                    <mxGeometry x="141.75" y="310" width="76.5" height="93" as="geometry"/>
                </mxCell>
                <mxCell id="52" value="" style="outlineConnect=0;dashed=0;verticalLabelPosition=bottom;verticalAlign=top;align=center;html=1;shape=mxgraph.aws3.ec2;fillColor=#F58534;gradientColor=none;" parent="12" vertex="1">
                    <mxGeometry x="461.75" y="310" width="76.5" height="93" as="geometry"/>
                </mxCell>
                <mxCell id="54" value="" style="outlineConnect=0;dashed=0;verticalLabelPosition=bottom;verticalAlign=top;align=center;html=1;shape=mxgraph.aws3.rds;fillColor=#2E73B8;gradientColor=none;" parent="12" vertex="1">
                    <mxGeometry x="144" y="429.99999999999994" width="72" height="81" as="geometry"/>
                </mxCell>
                <mxCell id="53" value="" style="outlineConnect=0;dashed=0;verticalLabelPosition=bottom;verticalAlign=top;align=center;html=1;shape=mxgraph.aws3.rds;fillColor=#2E73B8;gradientColor=none;" parent="12" vertex="1">
                    <mxGeometry x="464" y="429.99999999999994" width="72" height="81" as="geometry"/>
                </mxCell>
                <mxCell id="49" value="Availability Zone-1a" style="fillColor=none;strokeColor=#147EBA;dashed=1;verticalAlign=top;fontStyle=0;fontColor=#147EBA;" parent="12" vertex="1">
                    <mxGeometry x="40" y="40" width="280" height="520" as="geometry"/>
                </mxCell>
                <mxCell id="50" value="Availability Zone-1c" style="fillColor=none;strokeColor=#147EBA;dashed=1;verticalAlign=top;fontStyle=0;fontColor=#147EBA;" parent="12" vertex="1">
                    <mxGeometry x="360" y="40" width="280" height="520" as="geometry"/>
                </mxCell>
                <mxCell id="62" style="edgeStyle=none;html=1;" parent="12" source="19" target="56" edge="1">
                    <mxGeometry relative="1" as="geometry"/>
                </mxCell>
                <mxCell id="19" value="" style="outlineConnect=0;dashed=0;verticalLabelPosition=bottom;verticalAlign=top;align=center;html=1;shape=mxgraph.aws3.application_load_balancer;fillColor=#F58536;gradientColor=none;sketch=0;fontFamily=Helvetica;fontSize=12;fontColor=#879196;strokeColor=#879196;" parent="12" vertex="1">
                    <mxGeometry x="305.5" y="124.92230769230767" width="69" height="70.15384615384615" as="geometry"/>
                </mxCell>
                <mxCell id="55" value="" style="outlineConnect=0;dashed=0;verticalLabelPosition=bottom;verticalAlign=top;align=center;html=1;shape=mxgraph.aws3.auto_scaling;fillColor=#F58534;gradientColor=none;" parent="12" vertex="1">
                    <mxGeometry x="300.25" y="318.25" width="79.5" height="76.5" as="geometry"/>
                </mxCell>
                <mxCell id="56" value="" style="rounded=1;arcSize=10;dashed=1;fillColor=none;gradientColor=none;dashPattern=8 3 1 3;strokeWidth=2;" parent="12" vertex="1">
                    <mxGeometry x="125" y="302.88" width="430" height="107.25" as="geometry"/>
                </mxCell>
                <mxCell id="63" value="" style="outlineConnect=0;dashed=0;verticalLabelPosition=bottom;verticalAlign=top;align=center;html=1;shape=mxgraph.aws3.ec2;fillColor=#F58534;gradientColor=none;" vertex="1" parent="12">
                    <mxGeometry x="90" y="113.49999999999996" width="76.5" height="93" as="geometry"/>
                </mxCell>
                <mxCell id="61" value="" style="edgeStyle=none;html=1;" parent="1" target="21" edge="1">
                    <mxGeometry relative="1" as="geometry">
                        <mxPoint x="450" y="240" as="targetPoint"/>
                        <mxPoint x="660" y="360" as="sourcePoint"/>
                    </mxGeometry>
                </mxCell>
                <mxCell id="11" value="" style="outlineConnect=0;dashed=0;verticalLabelPosition=bottom;verticalAlign=top;align=center;html=1;shape=mxgraph.aws3.route_53;fillColor=#F58536;gradientColor=none;" parent="1" vertex="1">
                    <mxGeometry x="670" y="340" width="70.5" height="85.5" as="geometry"/>
                </mxCell>
                <mxCell id="14" value="" style="outlineConnect=0;dashed=0;verticalLabelPosition=bottom;verticalAlign=top;align=center;html=1;shape=mxgraph.aws3.internet_gateway;fillColor=#F58534;gradientColor=none;sketch=0;fontFamily=Helvetica;fontSize=12;fontColor=#879196;strokeColor=#879196;" parent="1" vertex="1">
                    <mxGeometry x="384.5" y="390" width="69" height="72" as="geometry"/>
                </mxCell>
                <mxCell id="23" style="edgeStyle=none;html=1;fontFamily=Helvetica;fontSize=12;fontColor=#879196;entryX=0.5;entryY=0;entryDx=0;entryDy=0;entryPerimeter=0;" parent="1" source="21" target="14" edge="1">
                    <mxGeometry relative="1" as="geometry">
                        <mxPoint x="414" y="390" as="targetPoint"/>
                    </mxGeometry>
                </mxCell>
                <mxCell id="21" value="" style="outlineConnect=0;dashed=0;verticalLabelPosition=bottom;verticalAlign=top;align=center;html=1;shape=mxgraph.aws3.internet_3;fillColor=#D2D3D3;gradientColor=none;sketch=0;fontFamily=Helvetica;fontSize=12;fontColor=#879196;strokeColor=#879196;" parent="1" vertex="1">
                    <mxGeometry x="380.25" y="180" width="79.75" height="50" as="geometry"/>
                </mxCell>
                <mxCell id="22" value="インターネット" style="text;html=1;align=center;verticalAlign=middle;resizable=0;points=[];autosize=1;strokeColor=none;fillColor=none;fontSize=18&#10;;fontFamily=Helvetica;fontColor=#879196;" parent="1" vertex="1">
                    <mxGeometry x="470" y="177" width="100" height="20" as="geometry"/>
                </mxCell>
                <mxCell id="24" value="インターネットゲートウェイ" style="text;html=1;align=center;verticalAlign=middle;resizable=0;points=[];autosize=1;strokeColor=none;fillColor=none;fontSize=14;fontFamily=Helvetica;fontColor=#879196;" parent="1" vertex="1">
                    <mxGeometry x="453.5" y="405.5" width="170" height="20" as="geometry"/>
                </mxCell>
                <mxCell id="25" style="edgeStyle=none;html=1;fontFamily=Helvetica;fontSize=12;fontColor=#879196;" parent="1" source="14" target="19" edge="1">
                    <mxGeometry relative="1" as="geometry"/>
                </mxCell>
                <mxCell id="59" value="" style="endArrow=classic;html=1;" parent="1" edge="1">
                    <mxGeometry width="50" height="50" relative="1" as="geometry">
                        <mxPoint x="470" y="220" as="sourcePoint"/>
                        <mxPoint x="670" y="350" as="targetPoint"/>
                    </mxGeometry>
                </mxCell>
                <mxCell id="64" value="&lt;span style=&quot;font-family: &amp;#34;helvetica&amp;#34; ; text-align: center&quot;&gt;とりあえずこのインスタンスにデプロイ&amp;nbsp;&lt;/span&gt;&lt;br style=&quot;font-family: &amp;#34;helvetica&amp;#34; ; text-align: center&quot;&gt;&lt;span style=&quot;font-family: &amp;#34;helvetica&amp;#34; ; text-align: center&quot;&gt;→ インスタンスのAMIを作成&lt;/span&gt;&lt;br style=&quot;font-family: &amp;#34;helvetica&amp;#34; ; text-align: center&quot;&gt;&lt;span style=&quot;font-family: &amp;#34;helvetica&amp;#34; ; text-align: center&quot;&gt;→ AMIを使って起動テンプレートを作成し、&lt;/span&gt;&lt;br style=&quot;font-family: &amp;#34;helvetica&amp;#34; ; text-align: center&quot;&gt;&lt;span style=&quot;font-family: &amp;#34;helvetica&amp;#34; ; text-align: center&quot;&gt;ELBとつなげてAutoScalingを実現させる&lt;/span&gt;" style="text;whiteSpace=wrap;html=1;" vertex="1" parent="1">
                    <mxGeometry x="-80" y="680" width="270" height="70" as="geometry"/>
                </mxCell>
                <mxCell id="65" style="edgeStyle=none;html=1;" edge="1" parent="1" source="64" target="63">
                    <mxGeometry relative="1" as="geometry"/>
                </mxCell>
                <mxCell id="67" value="" style="edgeStyle=none;html=1;" edge="1" parent="1" source="66" target="63">
                    <mxGeometry relative="1" as="geometry"/>
                </mxCell>
                <mxCell id="66" value="デプロイ担当" style="sketch=0;outlineConnect=0;fontColor=#232F3E;gradientColor=none;strokeColor=#232F3E;fillColor=#ffffff;dashed=0;verticalLabelPosition=bottom;verticalAlign=top;align=center;html=1;fontSize=12;fontStyle=0;aspect=fixed;shape=mxgraph.aws4.resourceIcon;resIcon=mxgraph.aws4.user;" vertex="1" parent="1">
                    <mxGeometry x="-60" y="440" width="60" height="60" as="geometry"/>
                </mxCell>
                <mxCell id="70" value="" style="edgeStyle=none;html=1;" edge="1" parent="1" source="69" target="56">
                    <mxGeometry relative="1" as="geometry"/>
                </mxCell>
                <mxCell id="69" value="" style="sketch=0;points=[[0,0,0],[0.25,0,0],[0.5,0,0],[0.75,0,0],[1,0,0],[0,1,0],[0.25,1,0],[0.5,1,0],[0.75,1,0],[1,1,0],[0,0.25,0],[0,0.5,0],[0,0.75,0],[1,0.25,0],[1,0.5,0],[1,0.75,0]];points=[[0,0,0],[0.25,0,0],[0.5,0,0],[0.75,0,0],[1,0,0],[0,1,0],[0.25,1,0],[0.5,1,0],[0.75,1,0],[1,1,0],[0,0.25,0],[0,0.5,0],[0,0.75,0],[1,0.25,0],[1,0.5,0],[1,0.75,0]];outlineConnect=0;fontColor=#232F3E;gradientColor=#F34482;gradientDirection=north;fillColor=#BC1356;strokeColor=#ffffff;dashed=0;verticalLabelPosition=bottom;verticalAlign=top;align=center;html=1;fontSize=12;fontStyle=0;aspect=fixed;shape=mxgraph.aws4.resourceIcon;resIcon=mxgraph.aws4.systems_manager;" vertex="1" parent="1">
                    <mxGeometry x="381" y="1170" width="78" height="78" as="geometry"/>
                </mxCell>
                <mxCell id="71" value="ssh" style="text;html=1;align=center;verticalAlign=middle;resizable=0;points=[];autosize=1;strokeColor=none;fillColor=none;" vertex="1" parent="1">
                    <mxGeometry x="425" y="1120" width="30" height="20" as="geometry"/>
                </mxCell>
                <mxCell id="72" value="Systems Manager" style="text;html=1;align=center;verticalAlign=middle;resizable=0;points=[];autosize=1;strokeColor=none;fillColor=none;" vertex="1" parent="1">
                    <mxGeometry x="365" y="1260" width="110" height="20" as="geometry"/>
                </mxCell>
            </root>
        </mxGraphModel>
    </diagram>
</mxfile>
